<?xml version="1.0" encoding="UTF-8"?>
<svg id="Layer_1" data-name="Layer 1" xmlns="http://www.w3.org/2000/svg" viewBox="0 0 48 48">
  <defs>
    <style>
      .cls-1 {
        fill: #131313;
        stroke-width: 0px;
      }
    </style>
  </defs>
  <path class="cls-1" d="M20.84,12.6h-.03c-.19.02-1.54.02-2.17-1.33,0,0,0-.02-.02-.02-.02-.03-.03-.09-.05-.12,0-.02-.02-.03-.02-.05-.02-.03-.02-.07-.03-.1-.02-.02-.02-.05-.03-.09s-.02-.05-.02-.09c-.02-.03-.02-.07-.03-.12,0-.02-.02-.03-.02-.07-.02-.05-.02-.1-.03-.16v-.03c-.02-.07-.02-.12-.03-.19,0-.05-.02-.12-.02-.17-.02-1.26-.76-2.35-1.85-2.83,0,0-.5-.24-.97-.26-.07,0-.24-.02-.28-.02h-5.61c-1.73,0-3.12,1.4-3.12,3.11-.24,2.55-2.26,2.54-2.48,2.52h-.03c-1.73,0-3.12,1.4-3.12,3.12v11.25c0,1.73,1.4,3.12,3.12,3.12h.03c.29,0,2.07-.03,2.45,2.21v.31c-.26,2.61-2.12,2.47-2.52,2.52h-.03c-1.85.05-3.12,1.4-3.12,3.12s1.4,3.12,3.12,3.12h.19c.52.02,2.12.28,2.33,2.52.02,1.45,1,2.66,2.35,3,.03,0,.07.02.09.02.05.02.1.02.16.03.19.03.38.07.57.07h5.59c1.71,0,3.12-1.4,3.12-3.11.24-2.55,2.26-2.54,2.48-2.52h.03c1.73,0,3.12-1.4,3.12-3.12s-1.4-3.12-3.12-3.12-3.12,1.4-3.12,3.12v.03c.05.71-.12,1.28-.5,1.67-.59.62-1.54.76-1.88.78h-5.74s-1.29-.02-2.02-.78c-.38-.4-.5-.97-.5-1.67v-.47c.03-.52.21-.95.5-1.26.59-.62,1.54-.83,1.88-.86h5.74c1.73,0,3.12-1.33,3.12-3.04.24-2.55,2.26-2.54,2.48-2.52h.03c1.73,0,3.12-1.4,3.12-3.12v-11.28c.02-1.73-1.38-3.14-3.11-3.14ZM17.2,28.7c-.72.78-2,.78-2.02.78h-5.56s-1.29-.02-2.02-.78c-.38-.4-.55-.97-.5-1.67v-11.58c0-.59.17-1.07.5-1.41.6-.64,1.59-.76,1.91-.78h5.76c.29.02,1.31.12,1.93.78.33.35.5.83.5,1.41v11.58c.03.71-.14,1.28-.52,1.67ZM20.86,7.67c1.74,0,3.14-1.41,3.14-3.14s-1.4-3.16-3.14-3.16-3.14,1.41-3.14,3.14,1.4,3.16,3.14,3.16Z"/>
</svg>