<?xml version="1.0" encoding="UTF-8"?>
<svg id="Layer_3" data-name="Layer 3" xmlns="http://www.w3.org/2000/svg" viewBox="0 0 48 48">
  <defs>
    <style>
      .cls-1 {
        fill: #fff;
        fill-rule: evenodd;
      }

      .cls-1, .cls-2 {
        stroke-width: 0px;
      }

      .cls-2 {
        fill: #3178c6;
      }
    </style>
  </defs>
  <rect class="cls-2" x="1.36" y="1.7" width="44.64" height="44.64" rx="4.36" ry="4.36"/>
  <rect class="cls-2" x="1.36" y="1.7" width="44.64" height="44.64" rx="4.36" ry="4.36"/>
  <path class="cls-1" d="M28.99,37.22v4.36c.71.36,1.55.64,2.52.82s1.99.27,3.06.27,2.04-.1,2.98-.3c.94-.2,1.77-.53,2.48-.99.71-.46,1.27-1.06,1.69-1.8s.62-1.66.62-2.75c0-.79-.12-1.48-.35-2.08s-.58-1.13-1.02-1.59c-.45-.46-.98-.88-1.6-1.25s-1.33-.72-2.11-1.04c-.57-.24-1.09-.47-1.54-.69-.45-.22-.84-.45-1.16-.68-.32-.23-.56-.48-.74-.74-.17-.26-.26-.55-.26-.88,0-.3.08-.57.23-.81s.37-.45.65-.62c.28-.17.63-.31,1.04-.4.41-.1.86-.14,1.36-.14.36,0,.75.03,1.15.08.4.05.81.14,1.22.25.41.11.81.26,1.19.43.39.17.74.37,1.07.6v-4.08c-.66-.25-1.39-.44-2.18-.57s-1.69-.18-2.71-.18-2.02.11-2.95.33-1.74.57-2.45,1.04c-.7.47-1.26,1.08-1.67,1.81-.41.73-.61,1.61-.61,2.63,0,1.3.38,2.41,1.13,3.33.75.92,1.89,1.7,3.42,2.33.6.25,1.16.49,1.68.72s.97.48,1.34.74c.38.25.68.53.89.83.22.3.33.64.33,1.02,0,.28-.07.54-.2.78s-.34.45-.62.63-.62.32-1.04.42c-.41.1-.9.15-1.45.15-.95,0-1.88-.17-2.81-.5-.93-.33-1.79-.83-2.58-1.49h0ZM21.66,26.47h5.6v-3.58h-15.61v3.58h5.57v15.95h4.44v-15.95Z"/>
</svg>