<?xml version="1.0" encoding="UTF-8"?>
<svg id="Layer_2" data-name="Layer 2" xmlns="http://www.w3.org/2000/svg" viewBox="0 0 48 48">
  <defs>
    <style>
      .cls-1 {
        fill: #00dc82;
        stroke-width: 0px;
      }
    </style>
  </defs>
  <path class="cls-1" d="M26.88,46.35h17.76c.57,0,1.11-.2,1.6-.48.49-.28,1-.63,1.28-1.12.28-.49.48-1.04.48-1.6,0-.56-.2-1.11-.48-1.6l-12-20.64c-.28-.49-.63-.84-1.12-1.12-.49-.28-1.19-.48-1.76-.48s-1.11.2-1.6.48c-.49.28-.84.63-1.12,1.12l-3.04,5.28-6.08-10.24c-.28-.49-.63-1-1.12-1.28-.49-.28-1.03-.32-1.6-.32s-1.11.04-1.6.32c-.49.28-1,.79-1.28,1.28L.32,41.55C.04,42.03,0,42.59,0,43.15c0,.56.04,1.11.32,1.6.28.49.79.84,1.28,1.12.49.28,1.03.48,1.6.48h11.2c4.44,0,7.67-1.99,9.92-5.76l5.44-9.44,2.88-4.96,8.8,15.04h-11.68l-2.88,5.12ZM14.24,41.23h-7.84l11.68-20.16,5.92,10.08-3.92,6.84c-1.5,2.45-3.2,3.24-5.84,3.24Z"/>
</svg>