<?xml version="1.0" encoding="UTF-8"?>
<svg id="Layer_1" data-name="Layer 1" xmlns="http://www.w3.org/2000/svg" viewBox="0 0 1091.94 267.73">
  <defs>
    <style>
      .cls-1 {
        fill: #000;
      }

      .cls-1, .cls-2 {
        stroke-width: 0px;
      }

      .cls-2 {
        fill: #00dc82;
      }
    </style>
  </defs>
  <path class="cls-2" d="M170.52,203h112.67c3.6,0,7.04-1.26,10.15-3.05,3.11-1.78,6.32-4.02,8.12-7.11,1.8-3.09,3.05-6.59,3.05-10.15,0-3.56-1.25-7.06-3.05-10.15L225.34,41.62c-1.8-3.09-3.99-5.32-7.1-7.11-3.11-1.78-7.57-3.05-11.17-3.05s-7.04,1.26-10.15,3.05c-3.11,1.78-5.31,4.02-7.11,7.11l-19.29,33.5L131.95,10.15c-1.8-3.09-3.99-6.34-7.1-8.12-3.11-1.78-6.55-2.03-10.15-2.03s-7.04.25-10.15,2.03c-3.11,1.78-6.32,5.03-8.12,8.12L2.03,172.55C.23,175.64,0,179.14,0,182.7c0,3.56.23,7.06,2.03,10.15,1.8,3.09,5.01,5.32,8.12,7.11,3.11,1.78,6.55,3.05,10.15,3.05h71.05c28.15,0,48.65-12.63,62.93-36.54l34.51-59.89,18.27-31.47,55.83,95.41h-74.1l-18.27,32.48ZM90.34,170.52h-49.74L114.7,42.63l37.56,63.95-24.88,43.37c-9.49,15.51-20.3,20.58-37.04,20.58Z"/>
  <path class="cls-1" d="M658.04,133.23c-10,0-18.1,8.1-18.1,18.1v.2c.3,4.1-.7,7.4-2.9,9.7-3.4,3.6-8.9,4.4-10.9,4.5h-33.3c-.1,0-7.5-.1-11.7-4.5-2.2-2.3-3.2-5.6-2.9-9.7v-64.9c-.3-4.1.7-7.4,2.9-9.7,4.2-4.5,11.6-4.5,11.7-4.5h34.3c5.9.9,11.9,4.6,12.3,13.3v.1c.9,12.6-6.4,15-12,15.3-.9,0-17.4-.1-17.4-.1-10,0-18.1,8.1-18.1,18.1s8.1,18.2,18.1,18.2h15.3c10,0,18.1-8.1,18.1-18.2,0-.4.1-1.5.1-1.8,1.2-12.4,10.9-11.8,14.1-12.3h.2c10,0,18.1-8.1,18.1-18.1s-8.1-18.1-18.1-18.1h-.2c-2.7,0-13.2-.5-14.2-12.6v-2.2c0-10-8.1-17.8-18.1-17.8h-32.5c-10,0-18.1,8.1-18.1,18-1.6,14.7-13.3,14.6-14.6,14.5h-.2c-10,0-18.1,8.1-18.1,18.1v64.5c0,10,8.1,18.1,18.1,18.1h.2c1.3-.1,13-.2,14.4,14.6.1,8.4,5.8,15.4,13.6,17.4.2,0,.4.1.5.1.3.1.6.1.9.2,1.1.2,2.1.4,3.3.4h32.5c10,0,18.1-8.1,18.1-18,1.4-14.8,13.1-14.7,14.4-14.6h.2c10,0,18.1-8.1,18.1-18.1s-8.1-18.2-18.1-18.2h0ZM902.34,68.33h-.2c-1.3.1-13,.2-14.4-14.6-.1-7.3-4.5-13.6-10.7-16.4,0,0-2.7-1.6-7.2-1.6h-32.4c-10,0-18.1,8.1-18.1,18-1.4,14.8-13.1,14.7-14.4,14.6h-.2c-10,0-18.1,8.1-18.1,18.1v97.2c0,10,8.1,18.1,18.1,18.1s18.1-8.1,18.1-18.1v-97.3c-.3-4.1.7-7.4,2.9-9.7,4.2-4.5,11.6-4.5,11.7-4.5h32.2c.1,0,7.5.1,11.7,4.5,2.2,2.3,3.2,5.6,2.9,9.7v65c0,.1-.1,7.5-4.5,11.7-2.3,2.2-5.6,3.2-9.7,2.9h-.2c-10,0-18.1,8.1-18.1,18.1s8.1,18.1,18.1,18.1,18.1-8.1,18.1-18.1v-.2c-.1-1.3-.2-13,14.6-14.4,9.9-.1,18-8.2,18-18.1v-64.8c0-10-8.2-18.2-18.2-18.2h0ZM731.14,81.93c-10,0-18.1,8.1-18.1,18.1v84c0,10,8.1,18.1,18.1,18.1s18.1-8.1,18.1-18.1v-84c.1-10-8.1-18.1-18.1-18.1ZM1073.84,133.63h-.2c-.5,0-13,.6-14.4-14.7v-.2c-.3-9.7-8.4-17.6-18.1-17.6h-32.6c-.8,0-7.6-.3-11.6-4.5-2.2-2.3-2.9-5.6-2.9-9.7v-.4c0-4.1.7-7.4,2.9-9.7,4.2-4.5,11.6-4.5,11.7-4.5h32.3c10,0,18.2-8.1,18.2-18.2v-.3h.1c-.2-9.8-8.2-17.8-18.1-17.8h-32.5c-10,0-18.1,8.1-18.1,18-1.4,14.8-13.1,14.7-14.4,14.6h-.2c-10,0-18.1,8.1-18.1,18.1s8.1,18.1,18.1,18.1h.2c.5,0,12.9-.6,14.4,14.6.1,9.9,8.2,18,18.1,18h32.5c.5,0,7.5.1,11.7,4.5,2.2,2.3,2.9,5,2.9,9.3v.6c0,4.1-.7,7.5-2.9,9.9-4.1,4.4-11.4,4.6-11.7,4.6h-32.3c-.1,0-7.5-.1-11.7-4.5-2.2-2.3-3.2-5.5-2.9-9.6v-.4c0-10-8.1-18.1-18.1-18.1s-18.1,8.1-18.1,18.1,8.1,18.1,18.1,18.1h.3c1.6,0,12.9-.2,14.3,14.6.1,9.9,8.2,18,18.1,18h32.5c10,0,18.1-8.1,18.1-18.1v-1.3c2-13.3,13-13.2,14.2-13.1h.2c10,0,18.1-8.1,18.1-18.1s-8.1-18.4-18.1-18.3ZM731.14,35.83c-10.1,0-18.2,8.2-18.2,18.2s8.2,18.2,18.2,18.2,18.3-8.1,18.3-18.2-8.2-18.2-18.3-18.2ZM486.24,68.33h-.2c-1.1.1-8.9.1-12.6-7.7,0,0,0-.1-.1-.1-.1-.2-.2-.5-.3-.7,0-.1-.1-.2-.1-.3-.1-.2-.1-.4-.2-.6-.1-.1-.1-.3-.2-.5s-.1-.3-.1-.5c-.1-.2-.1-.4-.2-.7,0-.1-.1-.2-.1-.4-.1-.3-.1-.6-.2-.9v-.2c-.1-.4-.1-.7-.2-1.1,0-.3-.1-.7-.1-1-.1-7.3-4.4-13.6-10.7-16.4,0,0-2.9-1.4-5.6-1.5-.4,0-1.4-.1-1.6-.1h-32.5c-10,0-18.1,8.1-18.1,18-1.4,14.8-13.1,14.7-14.4,14.6h-.2c-10,0-18.1,8.1-18.1,18.1v65.2c0,10,8.1,18.1,18.1,18.1h.2c1.7,0,12-.2,14.2,12.8v1.8c-1.5,15.1-12.3,14.3-14.6,14.6h-.2c-10.7.3-18.1,8.1-18.1,18.1s8.1,18.1,18.1,18.1h1.1c3,.1,12.3,1.6,13.5,14.6.1,8.4,5.8,15.4,13.6,17.4.2,0,.4.1.5.1.3.1.6.1.9.2,1.1.2,2.2.4,3.3.4h32.4c9.9,0,18.1-8.1,18.1-18,1.4-14.8,13.1-14.7,14.4-14.6h.2c10,0,18.1-8.1,18.1-18.1s-8.1-18.1-18.1-18.1-18.1,8.1-18.1,18.1v.2c.3,4.1-.7,7.4-2.9,9.7-3.4,3.6-8.9,4.4-10.9,4.5h-33.3c-.1,0-7.5-.1-11.7-4.5-2.2-2.3-2.9-5.6-2.9-9.7v-2.7c.2-3,1.2-5.5,2.9-7.3,3.4-3.6,8.9-4.8,10.9-5h33.3c10,0,18.1-7.7,18.1-17.6,1.4-14.8,13.1-14.7,14.4-14.6h.2c10,0,18.1-8.1,18.1-18.1v-65.4c.1-10-8-18.2-18-18.2ZM465.14,161.63c-4.2,4.5-11.6,4.5-11.7,4.5h-32.2c-.1,0-7.5-.1-11.7-4.5-2.2-2.3-3.2-5.6-2.9-9.7v-67.1c0-3.4,1-6.2,2.9-8.2,3.5-3.7,9.2-4.4,11.1-4.5h33.4c1.7.1,7.6.7,11.2,4.5,1.9,2,2.9,4.8,2.9,8.2v67.1c.2,4.1-.8,7.4-3,9.7ZM486.34,39.73c10.1,0,18.2-8.2,18.2-18.2s-8.1-18.3-18.2-18.3-18.2,8.2-18.2,18.2,8.1,18.3,18.2,18.3Z"/>
  <path class="cls-1" d="M1073.74,107.63c10.1,0,18.2-8.2,18.2-18.2s-8.2-18.2-18.2-18.2-18.2,8.2-18.2,18.2,8.2,18.2,18.2,18.2Z"/>
</svg>